<svg xmlns="http://www.w3.org/2000/svg" viewBox="0 0 1024 1024"><defs><linearGradient id="a" x1="371.5" y1="377.4" x2="862.2" y2="1083.5" gradientUnits="userSpaceOnUse"><stop offset="0" stop-color="#0cd9f0"/><stop offset="1" stop-color="#1941d6"/></linearGradient><linearGradient id="b" x1="636" y1="242" x2="1041.4" y2="242" gradientUnits="userSpaceOnUse"><stop offset="0" stop-color="#0cd9f0"/><stop offset="1" stop-color="#1941d6"/></linearGradient><linearGradient id="c" x1="761" y1="146.5" x2="1040.6" y2="146.5" gradientUnits="userSpaceOnUse"><stop offset="0" stop-color="#0cd9f0"/><stop offset="1" stop-color="#1941d6"/></linearGradient></defs><path fill="url(#a)" d="M520 353.5c.6-2.3 4.3-3.3 6.4-3.6 11.6-1.2 40.7-1.3 52.1 0s2.1.3 3.2.8c4.1 1.6 15.4 24.2 18.4 29.6 28.4 51.2 54.9 103.6 83 155l2.4 1.7c2.6 0 9-12.5 10.7-15.4 31.9-55.5 59.6-113.5 90.4-169.6 1.3-1.6 3-1.8 4.9-2.1 12-1.4 40.8-1.2 53.1 0s7.5 1.9 7.5 7.5v340c-.2 83.4-63.6 153.8-146.6 161.5h-424c-82.1-5.9-145.2-74-149.5-155.4V322.4c7.7-95.7 72.4-154.1 167.5-157.5 86.1-3 174.3 2 260.6.5 31.2 6.4 29 50.8-3.5 53.6H289.5c-55.3 3.1-97.2 41.7-104.3 96.6-2.6 127.5-.3 255.3-1.2 382.9 3.4 57.9 46.6 102.9 104.5 107.5h397c55.2-4.2 100-46.5 103.6-102.5V467l-88.3 162.3c-2.9 1.2-24.2 1.2-28.3.7s-3.6-.5-4.9-2.1c-28.4-49.2-52-101.4-80.4-150.6-1.6-2.8-3.4-6.7-6.2-8.3-.2 3.3.9 6.2 1 9.5 2.3 59.6-1.4 120.9-.5 180.6l-2.5 3.5H475c-1.7-1.1-2.6-2.7-3.5-4.5-8.5-16.9-11.8-40.9-19.7-58.3-.8-1.7-1.4-3.9-3.5-4.5l-119.3.3c-2.6 1.8-16.7 51.8-20.2 59.8s-3.7 7.7-5.3 7.7h-67c-.8 0-1.9-2.3-1.5-3.4 37.9-103 79.1-204.9 117.1-307.9l1.5-1.5 72.9.9 93.5 235V353.7ZM350.1 538.9c2.1.4 4.2 1 6.4 1.1 17.4 1.2 47.9 1.6 65.1 0s6.9-.7 7.3-2.6L390 422l-4 8.5c-8.4 33-28.8 69.8-35.5 102.5-.4 2-.8 4-.3 6Z"/><path fill="url(#b)" d="M817 240c.3 1.3-1 1.1-2 1.5-6.1 2.2-12.9 3.4-19.2 5.8-39.6 14.8-60.1 42.3-70.3 82.8-7.4-47.8-43.1-79.2-89.5-88.5 46.9-9.2 80.4-40.5 90.5-87.5 9.4 46.7 43.8 78.2 90.5 86Z"/><path fill="url(#c)" d="M894 146c.3 1.3-1 1.2-2 1.5-9.3 2.8-17.4 4.2-26.4 8.6-22.9 11.4-34.5 32.4-39.1 56.9-5.5-36.3-30.1-59.3-65.5-66.5 35.6-6.8 58.3-31.5 65.5-66.5 6.5 35.6 31.2 61.3 67.5 66"/></svg>