<!-- License: GPL. Made by coreui: https://github.com/coreui/coreui-icons/ -->
<svg opacity="0.6" width="17px" height="17px" viewBox="0 0 512 512" xmlns="http://www.w3.org/2000/svg">
  <path fill="#9199A1" d="M472,16H160a24.027,24.027,0,0,0-24,24V352a24.027,24.027,0,0,0,24,24H472a24.027,24.027,0,0,0,24-24V40A24.027,24.027,0,0,0,472,16Zm-8,328H168V48H464Z" class="ci-primary"/>
  <path fill="#9199A1" d="M344,464H48V168h56V136H40a24.027,24.027,0,0,0-24,24V472a24.027,24.027,0,0,0,24,24H352a24.027,24.027,0,0,0,24-24V408H344Z" class="ci-primary"/>
</svg>
